<svg version="1.1" class="logo-top-head" id="Layer_1" xmlns="http://www.w3.org/2000/svg" xmlns:xlink="http://www.w3.org/1999/xlink" x="0px" y="0px" width="136.5px" height="100px" fill="none" stroke="fcb331" stroke-width="1" viewBox="0 0 223 163.36" enable-background="new 0 0 223 163.36" xml:space="preserve">
					<polygon fill="#FCB331" points="11.768,118.371 18.899,128.342 25.996,118.371 28.551,118.371 28.551,136.113 26.635,136.113
						26.635,120.43 26.493,120.43 19.077,130.861 18.545,130.861 11.058,120.43 10.917,120.43 10.917,136.113 9.212,136.11322
						9.212,118.371 "></polygon>
					<path fill="#FCB331" d="M45.263,118.371l7.912,17.742h-2.058l-1.597-3.549H38.167l-1.598,3.549h-1.916l7.877-17.742H45.263z
						 M38.875,130.967h9.971l-4.719-10.928h-0.568L38.875,130.967z"></path>
					<polygon fill="#FCB331" points="75.777,118.371 75.777,136.113 73.791,136.113 61.123,120.784 61.123,136.113 59.278,136.113
						59.278,118.371 61.301,118.371 73.968,133.664 73.968,118.371 "></polygon>
					<polygon fill="#FCB331" points="98.273,118.371 98.273,136.113 96.357,136.113 96.357,127.42 84.683,127.42 84.683,136.113
						82.767,136.113 82.767,118.371 84.683,118.371 84.683,125.752 96.357,125.752 96.357,118.371 "></polygon>
					<path fill="#FCB331" d="M114.984,118.371l7.913,17.742h-2.058l-1.598-3.549h-11.354l-1.597,3.549h-1.916l7.877-17.742H114.984z
						 M108.598,130.967h9.971l-4.719-10.928h-0.568L108.598,130.967z"></path>
					<polygon fill="#FCB331" points="125.629,118.371 142.271,118.371 142.271,120.039 134.891,120.039 134.891,136.113 132.975,136.113
						132.975,120.039 125.629,120.039 "></polygon>
					<polygon fill="#FCB331" points="147.486,118.371 164.128,118.371 164.128,120.039 156.748,120.039 156.748,136.113 154.832,136.113
						154.832,120.039 147.486,120.039 "></polygon>
					<path fill="#FCB331" d="M177.47,118.371l7.913,17.742h-2.059l-1.597-3.549h-11.354l-1.597,3.549h-1.915l7.877-17.742H177.47z
						 M171.083,130.967h9.971l-4.72-10.928h-0.567L171.083,130.967z"></path>
					<polygon fill="#FCB331" points="207.984,118.371 207.984,136.113 205.997,136.113 193.33,120.784 193.33,136.113 191.484,136.113
						191.484,118.371 193.508,118.371 206.174,133.664 206.174,118.371 "></polygon>
					<polygon fill="#FCB331" points="55.42,23.442 82.08,23.442 82.08,60.181 85.586,60.181 85.586,19.936 51.914,19.936 51.914,87.569
						55.42,88.846 "></polygon>
					<polygon fill="#FCB331" points="82.08,63.688 82.08,98.549 85.586,99.825 85.586,63.688 "></polygon>
					<polygon fill="#FCB331" points="97.112,23.442 123.771,23.442 123.771,60.181 127.278,60.181 127.278,19.936 93.605,19.936
						93.605,60.181 97.112,60.181 "></polygon>
					<polygon fill="#FCB331" points="123.771,63.688 123.771,104.02 127.278,102.744 127.278,63.688 "></polygon>
					<polygon fill="#FCB331" points="97.112,63.688 93.605,63.688 93.605,102.744 97.112,104.02 "></polygon>
					<polygon fill="#FCB331" points="138.803,23.442 165.463,23.442 165.463,88.846 168.97,87.57 168.97,19.936 135.297,19.936
						135.297,60.181 138.803,60.181 "></polygon>
					<polygon fill="#FCB331" points="138.803,63.688 135.297,63.688 135.297,99.825 138.803,98.549 "></polygon>
					<rect x="138.803" y="60.181" fill="#FCB331" width="10.993" height="3.506"></rect>
					<rect x="97.112" y="60.181" fill="#FCB331" width="26.66" height="3.506"></rect>
					<rect x="71.088" y="60.181" fill="#FCB331" width="10.992" height="3.506"></rect>
					<rect x="127.278" y="60.181" fill="#FCB331" width="8.019" height="3.506"></rect>
					<rect x="85.586" y="60.181" fill="#FCB331" width="8.019" height="3.506"></rect>
					<rect x="82.08" y="60.181" fill="#FCB331" width="3.507" height="3.506"></rect>
					<rect x="123.772" y="60.181" fill="#FCB331" width="3.506" height="3.506"></rect>
					<rect x="93.605" y="60.181" fill="#FCB331" width="3.507" height="3.506"></rect>
					<rect x="135.297" y="60.181" fill="#FCB331" width="3.506" height="3.506"></rect>
					<polygon fill="#FCB331" points="14.356,144.566 15.369,144.566 15.369,148 19.076,144.566 20.294,144.566 16.628,148.025
						20.572,152.32 19.296,152.32 15.938,148.572 15.369,149.049 15.369,152.32 14.356,152.32 14.356,149.049 13.8,148.572
						10.468,152.32 9.181,152.32 13.073,148.018 9.473,144.566 10.691,144.566 14.356,147.99 "></polygon>
					<polygon fill="#FCB331" points="28.439,144.566 28.439,150.304 34.132,144.566 34.211,144.566 34.211,152.32 33.213,152.32
						33.213,146.637 27.562,152.32 27.441,152.32 27.441,144.566 "></polygon>
					<polygon fill="#FCB331" points="48.837,152.32 47.775,152.32 45.18,146.675 42.605,152.32 41.536,152.32 45.092,144.566
						45.271,144.566 "></polygon>
					<path fill="#FCB331" d="M59.868,144.367c1.195,0,2.185,0.433,2.97,1.297c0.714,0.789,1.071,1.723,1.071,2.801
						c0,1.083-0.377,2.03-1.132,2.84c-0.754,0.811-1.724,1.215-2.909,1.215c-1.19,0-2.162-0.404-2.916-1.215
						c-0.754-0.81-1.131-1.757-1.131-2.84c0-1.073,0.356-2.005,1.07-2.793C57.676,144.803,58.668,144.367,59.868,144.367 M59.864,145.344
						c-0.83,0-1.542,0.307-2.138,0.92c-0.596,0.611-0.894,1.354-0.894,2.223c0,0.561,0.136,1.084,0.408,1.568
						c0.271,0.484,0.639,0.859,1.101,1.122c0.462,0.264,0.97,0.396,1.523,0.396c0.553,0,1.061-0.132,1.523-0.396
						c0.462-0.263,0.83-0.638,1.101-1.122c0.272-0.484,0.408-1.008,0.408-1.568c0-0.869-0.299-1.611-0.897-2.223
						C61.4,145.65,60.689,145.344,59.864,145.344"></path>
					<path fill="#FCB331" d="M72.589,144.566v5.738l5.694-5.738h0.079v7.754h-0.998v-5.683l-5.651,5.683h-0.121v-7.754H72.589z
						 M72.447,141.453h0.94c0.162,0.247,0.378,0.432,0.649,0.557c0.271,0.123,0.594,0.185,0.969,0.185c0.38,0,0.686-0.055,0.919-0.164
						c0.233-0.109,0.454-0.302,0.663-0.577H77.5c-0.105,0.428-0.372,0.785-0.802,1.072c-0.43,0.287-0.997,0.432-1.7,0.432
						c-0.698,0-1.268-0.143-1.709-0.424C72.846,142.25,72.565,141.891,72.447,141.453"></path>
					<polygon fill="#FCB331" points="96.301,144.566 97.298,144.566 97.298,147.833 100.891,144.566 102.28,144.566 98.346,148.115
						102.589,152.32 101.178,152.32 97.612,148.736 97.298,149.014 97.298,152.32 96.301,152.32 "></polygon>
					<path fill="#FCB331" d="M113.134,144.367c1.195,0,2.185,0.433,2.97,1.297c0.714,0.789,1.071,1.723,1.071,2.801
						c0,1.083-0.377,2.03-1.131,2.84c-0.754,0.811-1.724,1.215-2.909,1.215c-1.189,0-2.162-0.404-2.916-1.215
						c-0.755-0.81-1.131-1.757-1.131-2.84c0-1.073,0.356-2.005,1.07-2.793C110.942,144.803,111.935,144.367,113.134,144.367
						 M113.13,145.344c-0.83,0-1.542,0.307-2.138,0.92c-0.596,0.611-0.894,1.354-0.894,2.223c0,0.561,0.136,1.084,0.408,1.568
						c0.271,0.484,0.639,0.859,1.102,1.122c0.461,0.264,0.969,0.396,1.522,0.396s1.061-0.132,1.523-0.396
						c0.462-0.263,0.83-0.638,1.101-1.122s0.408-1.008,0.408-1.568c0-0.869-0.299-1.611-0.898-2.223
						C114.667,145.65,113.956,145.344,113.13,145.344"></path>
					<polygon fill="#FCB331" points="133.279,144.566 133.563,144.566 136.197,152.32 135.156,152.32 133.234,146.617 130.252,152.32
						130.067,152.32 127.078,146.607 125.163,152.32 124.122,152.32 126.772,144.566 127.043,144.566 130.167,150.633 "></polygon>
					<polygon fill="#FCB331" points="143.522,144.566 150.029,144.566 150.029,152.32 149.031,152.32 149.031,145.508 144.521,145.508
						144.521,152.32 143.522,152.32 "></polygon>
					<polygon fill="#FCB331" points="164.654,152.32 163.593,152.32 160.998,146.675 158.424,152.32 157.354,152.32 160.91,144.566
						161.088,144.566 "></polygon>
					<path fill="#FCB331" d="M178.543,149.748l0.842,0.441c-0.276,0.542-0.596,0.979-0.957,1.311c-0.361,0.334-0.768,0.586-1.219,0.76
						c-0.452,0.174-0.963,0.26-1.534,0.26c-1.265,0-2.254-0.414-2.968-1.242c-0.713-0.83-1.068-1.767-1.068-2.812
						c0-0.983,0.301-1.859,0.904-2.629c0.766-0.979,1.791-1.469,3.075-1.469c1.321,0,2.377,0.502,3.167,1.504
						c0.561,0.708,0.846,1.592,0.855,2.651h-6.977c0.02,0.899,0.308,1.638,0.863,2.214c0.557,0.576,1.244,0.864,2.062,0.864
						c0.395,0,0.778-0.068,1.152-0.206c0.373-0.137,0.689-0.318,0.953-0.547C177.955,150.621,178.239,150.254,178.543,149.748
						 M178.543,147.66c-0.133-0.532-0.326-0.957-0.581-1.275s-0.591-0.576-1.01-0.771s-0.858-0.292-1.319-0.292
						c-0.762,0-1.416,0.246-1.963,0.734c-0.399,0.355-0.701,0.891-0.906,1.604H178.543z"></path>
					<polygon fill="#FCB331" points="187.338,144.566 188.336,144.566 188.336,147.833 191.928,144.566 193.316,144.566 189.383,148.115
						193.627,152.32 192.216,152.32 188.649,148.736 188.336,149.014 188.336,152.32 187.338,152.32 "></polygon>
					<path fill="#FCB331" d="M208.027,146.178l-0.791,0.491c-0.684-0.907-1.617-1.36-2.799-1.36c-0.943,0-1.727,0.303-2.352,0.911
						c-0.624,0.606-0.936,1.345-0.936,2.214c0,0.564,0.143,1.096,0.431,1.594c0.286,0.499,0.681,0.885,1.181,1.16
						c0.501,0.275,1.062,0.414,1.684,0.414c1.139,0,2.068-0.455,2.791-1.362l0.791,0.521c-0.371,0.559-0.869,0.99-1.493,1.299
						c-0.625,0.309-1.337,0.461-2.135,0.461c-1.226,0-2.242-0.389-3.05-1.168c-0.809-0.779-1.211-1.728-1.211-2.844
						c0-0.75,0.188-1.447,0.566-2.092c0.377-0.644,0.896-1.146,1.557-1.506c0.66-0.362,1.398-0.543,2.217-0.543
						c0.513,0,1.008,0.078,1.485,0.236c0.478,0.156,0.882,0.36,1.216,0.613C207.511,145.467,207.794,145.788,208.027,146.178"></path>
					<rect x="112.771" y="44.071" fill="#FCB331" width="3.522" height="8.055"></rect>
					<rect x="104.591" y="44.071" fill="#FCB331" width="3.522" height="8.055"></rect>
					<rect x="112.771" y="31.913" fill="#FCB331" width="3.522" height="8.055"></rect>
					<rect x="104.591" y="31.913" fill="#FCB331" width="3.522" height="8.055"></rect>
					</svg>